<svg xmlns="http://www.w3.org/2000/svg" viewBox="0 0 358.3 330.68"><defs><style>.cls-1{fill:#fff;}</style></defs><g id="Capa_2" data-name="Capa 2"><g id="Capa_1-2" data-name="Capa 1"><path class="cls-1" d="M151.17,330.54v.13c29,0,58.08,0,87.11,0a110.48,110.48,0,0,0,13.24-.83c26.55-3.27,50.65-29.28,51.37-56.15.55-20,.17-40.11.26-60.17a6.73,6.73,0,0,0-4.24-6.62c-2.72-1.26-5.11-.56-7.46,1.24a94.5,94.5,0,0,1-10.57,7.39c-3.8,2.16-5.35,5-5.29,9.33.19,13.88.14,27.76,0,41.64a42.32,42.32,0,0,1-1.11,10.37c-4.28,16.13-17.22,26.28-34,26.31q-88.87.18-177.74,0a33.83,33.83,0,0,1-21.19-6.89c-10.06-7.71-14.09-18-14.07-30.46q.11-84.31.05-168.64c0-3.72.16-7.45.42-11.17,1.15-15.86,14.9-29.61,30.81-30.49,8.25-.45,16.55-.2,24.82-.46a19,19,0,0,0,6.77-1.32c9.72-4.15,19.33-8.58,29-12.81,3.62-1.58,5.21-4.73,4-8.47-1.06-3.24-3.65-4.89-8-4.9-17.84,0-35.68-.06-53.53,0-8.71,0-17.26,1.39-25.09,5.33C13,44.87.08,63.88,0,90.86q-.11,87.46,0,174.93A110.78,110.78,0,0,0,.75,278c3.12,27.64,29.47,52.09,57.36,52.45C89.12,330.84,120.15,330.54,151.17,330.54Z"/><path class="cls-1" d="M358.3,99.59c-2.56,3.38-4.77,7.11-7.73,10.1-26,26.14-52.16,52.05-78,78.27-6.89,7-16.62,5.67-21.53-.18-2.67-3.19-2.93-7-2.94-10.88,0-11.42,0-22.85,0-34.27V138c-1.31-.07-2.42-.19-3.53-.18-15.16.09-30.32-.17-45.46.39-18,.68-35.68,3.32-52.67,9.73-24.54,9.27-37.89,27.4-42.76,52.66-3.8,19.69-3.27,39.4-1.14,59.18.25,2.31.5,4.63.77,6.94.5,4.21-.94,7.11-4.15,8.33s-6.65.17-9-3.45c-3.93-6.19-7.79-12.43-11.42-18.8C68.08,234.2,59.41,214.67,56.6,193.29c-1.47-11.22-1.18-22.8-.47-34.14,1-15.78,4.73-31,12.43-45.1a91.59,91.59,0,0,1,32.56-34.34C121,67.3,143,61.49,165.94,58.28c25.38-3.55,50.91-3.12,76.44-3.17,1.51,0,3-.06,4.54-.11a5.81,5.81,0,0,0,1.12-.45c0-1.27,0-2.74,0-4.21.09-12.7.11-25.4.31-38.1.08-5.54,3.39-9.11,8.23-11.1a12.93,12.93,0,0,1,13.79,2,44.13,44.13,0,0,1,3.31,3.11q38.46,38.45,76.87,77c3,3,5.18,6.7,7.75,10.07Z"/><path class="cls-1" d="M151.17,330.54c-31,0-62,.3-93.06-.09C30.22,330.09,3.87,305.64.75,278a110.78,110.78,0,0,1-.7-12.21Q0,178.33,0,90.86c0-27,13-46,36.73-57.95C44.6,29,53.15,27.62,61.86,27.58c17.85-.08,35.69,0,53.53,0,4.33,0,6.92,1.66,8,4.9,1.23,3.74-.36,6.89-4,8.47-9.7,4.23-19.31,8.66-29,12.81a19,19,0,0,1-6.77,1.32c-8.27.26-16.57,0-24.82.46C42.86,56.4,29.11,70.15,28,86c-.26,3.72-.42,7.45-.42,11.17q0,84.33-.05,168.64c0,12.42,4,22.75,14.07,30.46a33.83,33.83,0,0,0,21.19,6.89q88.88.07,177.74,0c16.79,0,29.73-10.18,34-26.31a42.32,42.32,0,0,0,1.11-10.37c.12-13.88.17-27.76,0-41.64-.06-4.37,1.49-7.17,5.29-9.33a94.5,94.5,0,0,0,10.57-7.39c2.35-1.8,4.74-2.5,7.46-1.24a6.73,6.73,0,0,1,4.24,6.62c-.09,20.06.29,40.13-.26,60.17-.72,26.87-24.82,52.88-51.37,56.15a110.48,110.48,0,0,1-13.24.83c-29,.07-58.07,0-87.11,0Z"/></g></g></svg>