<svg xmlns="http://www.w3.org/2000/svg" xmlns:xlink="http://www.w3.org/1999/xlink" viewBox="0 0 82.63 110.2"><defs><style>.cls-1{fill:url(#Degradado_sin_nombre_2);}</style><linearGradient id="Degradado_sin_nombre_2" y1="55.1" x2="82.63" y2="55.1" gradientUnits="userSpaceOnUse"><stop offset="0" stop-color="#13a7de"/><stop offset="1" stop-color="#01386e"/></linearGradient></defs><g id="Capa_2" data-name="Capa 2"><g id="Capa_1-2" data-name="Capa 1"><path class="cls-1" d="M53.39,0a2.61,2.61,0,0,1,1.73,2.47A31.41,31.41,0,0,0,60.8,20.12c3.39,5.1,7.1,10,10.6,15,5,7.19,8.77,14.94,10.29,23.65,1.3,7.4,1.45,14.77-.8,22A41.1,41.1,0,0,1,70.31,98.29a41.38,41.38,0,0,1-35.09,11.43A40.69,40.69,0,0,1,12.36,98.26,40.52,40.52,0,0,1,1.11,78.19,42.18,42.18,0,0,1,0,66.66,56.94,56.94,0,0,1,2.17,52.45c1.56-5.14,3.86-9.87,8-13.53a18.12,18.12,0,0,1,2-1.58c1.83-1.19,3.43-.48,4,1.62a66.4,66.4,0,0,0,2,6.66,15.44,15.44,0,0,0,5.91,7.73A28.14,28.14,0,0,0,27.47,55c.17-3.65.34-7,.51-10.45A56.41,56.41,0,0,1,42.14,9.1,55.85,55.85,0,0,1,52.1,0ZM44.47,66.71c-2.47,3-4.27,6.08-4.8,9.71-.44,3-.55,6-.72,9-.13,2.12-1.17,3-3.28,2.77A7.81,7.81,0,0,1,30,84.47c-.33-.49-.63-1-1.08-1.7-1.76,5.72-2.21,11.12,1,16.28A13.2,13.2,0,0,0,51,101.36c3.71-3.91,4.69-8.64,3.8-13.87a24.84,24.84,0,0,0-4-9.76C48.45,74.26,45.76,71,44.47,66.71Z"/></g></g></svg>