<svg xmlns="http://www.w3.org/2000/svg" viewBox="0 0 338 338"><defs><style>.cls-1,.cls-2{fill:none;stroke:#fff;stroke-miterlimit:10;}.cls-1{stroke-width:21px;}.cls-2{stroke-width:16px;}</style></defs><g id="Capa_2" data-name="Capa 2"><g id="Capa_1-2" data-name="Capa 1"><rect class="cls-1" x="10.5" y="10.5" width="317" height="317" rx="31.5"/><path class="cls-2" d="M289.16,172.21c-5.27,6.32-11.32,12-17.14,17.83q-44.28,44.4-88.63,88.74c-10,10-18.52,9.88-28.54-.14-33.92-33.95-68-67.74-101.69-101.92-33.9-34.4-21-91.2,24.39-106.76,23.84-8.17,46-3.72,64.71,13.61,9.05,8.38,17.25,17.69,26.57,27.34,9.27-9.45,17.38-18,25.84-26.25,24.91-24.2,63.11-24.66,88.43-1.23C308.61,107,311.35,145.61,289.16,172.21Z"/></g></g></svg>