<svg xmlns="http://www.w3.org/2000/svg" viewBox="0 0 361.5 299.2"><defs><style>.cls-1{fill:#fff;}.cls-2{fill:none;stroke:#fff;stroke-miterlimit:10;stroke-width:13px;}</style></defs><g id="Capa_2" data-name="Capa 2"><g id="Capa_1-2" data-name="Capa 1"><path class="cls-1" d="M333.22,55.17v206.4c0,7.56-5.79,13.69-12.94,13.69H105.93a48.12,48.12,0,0,0-11.14,1.31L0,299.2l20.06-84.84a56.49,56.49,0,0,0,1.51-13V55.17c0-7.56,5.79-13.69,12.94-13.69H320.28C327.43,41.48,333.22,47.61,333.22,55.17Z"/><path class="cls-2" d="M339.75,211.42h7.08c4.51,0,8.17-6.68,8.17-14.92V21.42c0-8.24-3.66-14.92-8.17-14.92H47.37c-4.51,0-8.17,6.68-8.17,14.92V222.81Z"/></g></g></svg>