<?xml version="1.0"?>
<svg xmlns="http://www.w3.org/2000/svg" xmlns:xlink="http://www.w3.org/1999/xlink" xmlns:svgjs="http://svgjs.com/svgjs" version="1.1" width="512" height="512" x="0" y="0" viewBox="0 0 512 512" style="enable-background:new 0 0 512 512" xml:space="preserve" class=""><g><path xmlns="http://www.w3.org/2000/svg" d="m468 96h-100c-3.306 0-6.116-2.254-6.833-5.481 0 0 0 0 0-.001l-5.385-24.231c-5.533-24.898-27.21-42.287-52.715-42.287h-94.135c-25.504 0-47.182 17.389-52.714 42.286l-5.386 24.232c-.716 3.228-3.526 5.482-6.832 5.482h-100c-24.262 0-44 19.738-44 44v304c0 24.262 19.738 44 44 44h424c24.262 0 44-19.738 44-44v-304c0-24.262-19.738-44-44-44zm-212 320c-13.255 0-24-10.745-24-24s10.745-24 24-24c44.112 0 80-35.888 80-80s-35.888-80-80-80c-31.659 0-59.568 18.306-72.479 46.034l17.886-5.11c12.747-3.644 26.028 3.738 29.67 16.482 3.641 12.745-3.738 26.029-16.483 29.67l-56 16c-2.174.622-4.392.925-6.591.925-6.278 0-12.409-2.467-16.973-7.03l-40-40c-9.373-9.373-9.373-24.568 0-33.941s24.568-9.373 33.941 0l8.555 8.555c8.244-20.091 21.572-38.026 38.689-51.683 22.55-17.993 50.885-27.902 79.785-27.902 70.58 0 128 57.421 128 128s-57.42 128-128 128z" fill="#fffcfc" data-original="#000000" style="" class=""/></g></svg>
