<?xml version="1.0" encoding="utf-8"?>
<!-- Generator: Adobe Illustrator 17.0.0, SVG Export Plug-In . SVG Version: 6.00 Build 0)  -->
<!DOCTYPE svg PUBLIC "-//W3C//DTD SVG 1.1//EN" "http://www.w3.org/Graphics/SVG/1.1/DTD/svg11.dtd">
<svg version="1.1" id="Layer_1" xmlns="http://www.w3.org/2000/svg" xmlns:xlink="http://www.w3.org/1999/xlink" x="0px" y="0px"
	 width="193.667px" height="102.503px" viewBox="0 0 193.667 102.503" enable-background="new 0 0 193.667 102.503"
	 xml:space="preserve">
<g>
	<g>
		<path fill="#F8DBCB" d="M88.809,95.287c0.811-0.201,1.51-0.496,2.091-0.796c0.022-3.545-0.063-8.438-0.063-8.438l-5.915,0.17
			l0.397,8.229C86.093,95.002,87.369,95.643,88.809,95.287z"/>
		<path fill="#F8DBCB" d="M114.964,83.387c-0.55,0.633-1.134,1.121-1.664,1.498c-3.165-1.6-7.475-3.915-7.475-3.915l2.854-5.182
			l7.138,4.115C115.952,80.844,115.938,82.275,114.964,83.387z"/>
		<path fill="#3A6B92" d="M82.959,72.542c0,0-0.916,5.098-1.139,6.993c-0.226,1.896,0.221,6.983,0.221,6.983l10.123,0.055
			c0,0,1.837-9.01,2.31-9.013c0.475-0.003,0.768-0.184,0.768-0.184l11.997,6.143c0,0,5.4-7.26,5.395-8.264
			c0,0-5.999-2.626-6.771-3.392c-0.774-0.766-2.681-2.349-2.681-2.349l-14.031-0.563L82.959,72.542z"/>
		<path fill="#6C899F" d="M82.041,86.519l10.123,0.055c0,0,0.108-0.54,0.284-1.354l-10.491,0.227
			C82.004,86.094,82.041,86.519,82.041,86.519z"/>
		<path fill="#F69FA7" d="M105.404,40.754c-0.135,0.946-1.011,1.608-1.957,1.475c-0.949-0.131-1.611-1.007-1.477-1.955
			c0.133-0.95,1.01-1.611,1.958-1.477C104.875,38.931,105.536,39.807,105.404,40.754z"/>
		<circle fill="#FFFFFF" cx="103.313" cy="36.416" r="0.166"/>
		<g>
			<path fill="#08593E" d="M121.566,78.639c3.073,0.038,2.63,3.143,1.773,4.119c-0.853,0.978-6.15,3.607-6.795,3.615
				c-0.225,0.003-1.573-0.644-3.245-1.488c0.53-0.377,1.114-0.865,1.664-1.498c0.974-1.112,0.988-2.543,0.853-3.483l1.01,0.58
				C116.826,80.484,118.493,78.608,121.566,78.639z"/>
			<path fill="#08593E" d="M81.567,98.987c-1.376,2.748,1.59,3.773,2.848,3.462c1.26-0.312,6.021-3.821,6.322-4.389
				c0.105-0.198,0.148-1.694,0.162-3.568c-0.581,0.3-1.28,0.595-2.091,0.796c-1.439,0.355-2.716-0.285-3.49-0.835l0.052,1.162
				C85.37,95.615,82.941,96.238,81.567,98.987z"/>
			<path fill="#6C899F" d="M112.634,75.256c0,0-0.44-0.192-1.094-0.487l-5.362,8.206l1.062,0.545
				C107.239,83.52,112.64,76.26,112.634,75.256z"/>
			<path fill="#6C899F" d="M109.204,76.107c0.525-0.428,0.895-1.178,1.143-1.883c-1.41-0.652-3.112-1.468-3.983-2.002l-1.255,1.958
				C105.108,74.18,108.026,77.061,109.204,76.107z"/>
			<path fill="#F8DBCB" d="M81.697,53.235c0,0-5.868,0.695-8.112,0.821c-2.245,0.128-8.989,0.22-8.989,0.22
				s-2.741-1.094-3.338-1.428c-0.598-0.335-1.799-0.665-1.975-0.027c-0.175,0.638,1.395,1.296,1.395,1.296s-2.339-0.642-2.592,0.28
				c-0.253,0.921,2.586,0.86,2.586,0.86s-2.551-0.089-2.844,0.974c-0.291,1.063,2.799,0.31,2.799,0.31s-2.689,0.862-2.41,1.625
				c0.283,0.763,2.613-0.579,2.613-0.579s-1.17,1.813-0.599,1.971c0.568,0.156,1.623-0.776,1.759-1.271c0,0,1.846,0.66,2.782,0.153
				c0,0,14.854,2.243,16.385,0.228C82.695,56.65,81.697,53.235,81.697,53.235z"/>
			<path fill="#F8DBCB" d="M99.627,51.558c0,0,5.596-1.396,7.671-2.25c2.074-0.854,8.241-3.674,8.241-3.674s2.241-2.141,2.708-2.691
				c0.469-0.552,1.484-1.357,1.792-0.873c0.307,0.487-0.969,1.739-0.969,1.739s1.982-1.568,2.426-0.868
				c0.444,0.7-2.156,1.87-2.156,1.87s2.304-1.177,2.812-0.37c0.518,0.81-2.475,1.477-2.475,1.477s2.651-0.399,2.57,0.392
				c-0.079,0.792-2.515,0.616-2.515,0.616s1.486,1.088,1.005,1.473c-0.485,0.384-1.66,0.016-1.898-0.359c0,0-1.526,1.371-2.5,1.331
				c0,0-13.007,8.358-14.873,7.248C99.599,55.504,99.627,51.558,99.627,51.558z"/>
			<path fill="#07AF7D" d="M89.944,51.555c0,0-9.936,1.661-10.38,1.664c-0.442,0.003-0.888-0.172-0.888-0.172l0.218,6.391
				c0,0,4.44-0.027,4.792-0.295c0,0-0.406,5.951-0.926,7.464c-0.525,1.513-2.345,8.718-2.345,8.718s2.666,0.426,7.636,0.128
				c4.973-0.296,18.55-1.538,18.889-4.56c0,0-2.236-2.116-2.779-3.89c-0.548-1.771-2.991-9.304-2.991-9.304l4.783-1.54l-2.02-6.261
				C103.933,49.899,94.379,50.639,89.944,51.555z"/>
			<path fill="#F8DBCB" d="M88.41,47.746c0,0,0.037,6.304,4.389,6.012c4.35-0.294,4.223-5.888,4.223-5.888L88.41,47.746z"/>
			<path fill="#F8DBCB" d="M69.259,33.188c0,0-2.971-1.52-3.664,1.207c-0.695,2.729,2.751,4.483,3.936,4.476
				c0,0,3.302,13.331,24.937,11.797c14.674-1.04,16.001-15.137,16.001-15.137s4.148-0.025,4.133-2.274
				c-0.014-2.25-3.684-2.346-3.684-2.346s-2.726-0.103-4.635-2.694c-1.912-2.592-3.476-6.488-3.476-6.488
				S90.853,5.496,69.259,33.188z"/>
			<path fill="#D84853" d="M90.38,46.077c2.095,0.35,3.161-0.648,3.707-1.771c-0.06-0.034-0.114-0.068-0.177-0.103
				c-2.109-1.135-4.553-0.76-6.208-0.232C88.001,44.942,88.747,45.805,90.38,46.077z"/>
			<path fill="#DCB59E" d="M92.563,39.962c0,0-1.519,0.529-1.745-0.219c-0.223-0.745-0.679-0.462-0.242,0.313
				c0.435,0.776,1.94,1.044,2.132,0.622C92.9,40.26,93.122,39.628,92.563,39.962z"/>
			<circle fill="#DCB59E" cx="85.692" cy="39.299" r="0.177"/>
			<circle fill="#DCB59E" cx="100.207" cy="40.983" r="0.178"/>
			<circle fill="#DCB59E" cx="98.085" cy="40.272" r="0.177"/>
			<circle fill="#DCB59E" cx="100.487" cy="39.494" r="0.178"/>
			<circle fill="#DCB59E" cx="96.166" cy="39.522" r="0.178"/>
			<path fill="#DCB59E" d="M98.492,37.745c0.002,0.1-0.079,0.179-0.176,0.18c-0.099,0.002-0.178-0.078-0.178-0.178
				c-0.001-0.096,0.077-0.176,0.175-0.177C98.411,37.569,98.492,37.648,98.492,37.745z"/>
			<circle fill="#DCB59E" cx="83.87" cy="39.811" r="0.177"/>
			<circle fill="#DCB59E" cx="82.499" cy="39.704" r="0.179"/>
			<circle fill="#DCB59E" cx="90.57" cy="38.321" r="0.178"/>
			<path fill="#DCB59E" d="M92.737,36.888c0,0.097-0.079,0.177-0.177,0.178c-0.102,0-0.181-0.079-0.182-0.175
				c0-0.1,0.079-0.18,0.18-0.18C92.655,36.711,92.737,36.788,92.737,36.888z"/>
			<circle fill="#DCB59E" cx="94.853" cy="34.742" r="0.177"/>
			<circle fill="#DCB59E" cx="90.113" cy="36.284" r="0.177"/>
			<circle fill="#DCB59E" cx="85.256" cy="37.568" r="0.178"/>
			<circle fill="#DCB59E" cx="79.475" cy="39.683" r="0.178"/>
			<path fill="#A5792C" d="M111.766,33.084c-2.994-0.036-10.829,0.625-13.049-9.627c0,0-2.732,7.527-13.943,9.426
				c0,0,2.697-1.837,4.622-7.199c0,0-1.634,5.346-7.505,7.271c0,0,3.505-3.65,4.006-6.915c0,0-1.813,6.648-10.796,6.243
				c0,0,5.024-1.69,5.262-5.216c0,0-2.81,6.083-10.905,5.482c-8.095-0.601-8.481-5.203-8.481-5.203s2.229,1.552,5.219-0.296
				c0,0,1.151-27.701,33.172-19.686c0,0,18.514,1.299,14.104,24.179c-0.079,0.4-0.205,0.803-0.388,1.183
				C112.688,33.543,112.577,33.093,111.766,33.084z"/>
			<g>
				<g>
					<circle fill="#010101" cx="80.469" cy="36.611" r="1.234"/>
				</g>
				<circle fill="#FFFFFF" cx="80.615" cy="36.856" r="0.217"/>
			</g>
			<g>
				<g>
					<path fill="#010101" d="M100.348,37.803c-0.658,0.178-1.336-0.214-1.509-0.871c-0.18-0.66,0.215-1.338,0.873-1.513
						c0.659-0.177,1.334,0.215,1.51,0.874C101.397,36.951,101.006,37.628,100.348,37.803z"/>
				</g>
				<path fill="#FFFFFF" d="M100.279,37.047c-0.105,0.059-0.238,0.02-0.296-0.086c-0.057-0.105-0.02-0.237,0.088-0.296
					c0.103-0.057,0.237-0.019,0.294,0.087C100.425,36.859,100.385,36.991,100.279,37.047z"/>
			</g>
		</g>
	</g>
	<g>
		<path fill="#E3A888" d="M13.516,92.887c-0.325-0.425-0.496-0.854-0.595-1.248c1.079-0.23,1.939-0.323,1.939-0.323l0.888-15.128
			L22.131,76c0,0-0.929,12.05-2.005,17.301C18.314,93.532,14.307,93.916,13.516,92.887z"/>
		<path fill="#ED1868" d="M8.627,94.726c-0.461-1.743,2.299-2.659,4.294-3.087c0.099,0.395,0.27,0.823,0.595,1.248
			c0.791,1.029,4.799,0.645,6.61,0.414c-0.264,1.272-0.53,2.152-0.8,2.357C17.958,96.705,9.341,97.406,8.627,94.726z"/>
		<path fill="#E3A888" d="M36.242,92.902c0.272-0.457,0.39-0.902,0.441-1.304c-1.076-0.112-1.924-0.106-1.924-0.106L32.19,76.563
			l-6.245,0.528c0,0,2.262,11.87,3.904,16.968C31.637,94.083,35.589,94.01,36.242,92.902z"/>
		<path fill="#ED1868" d="M41.217,94.178c0.257-1.782-2.538-2.383-4.533-2.58c-0.052,0.401-0.17,0.847-0.441,1.304
			c-0.653,1.108-4.605,1.182-6.393,1.157c0.396,1.233,0.759,2.077,1.041,2.25C32.346,97.196,40.822,96.921,41.217,94.178z"/>
		<path fill="#391217" d="M8.041,26.307c0,0-7.17,0.239-8.041,11.045c0,0,0.704,3.155,6.673-1.622
			c5.971-4.774,6.045-7.909,6.045-7.909L8.041,26.307z"/>
		<path fill="#391217" d="M42.963,33.16c0,0-1.902,7.798,9.826,11.395c0,0,2.535-1.188,0.077-8.441
			c-2.46-7.254-5.376-8.378-5.376-8.378L42.963,33.16z"/>
		<path fill="#E3A888" d="M40.866,51.086l15.498,5.229c0,0-1.76,4.343-0.288,3.746c1.475-0.6,1.824-1.838,1.824-1.838
			s1.811,4.046,3.03,2.759c1.218-1.287-0.779-3.512-0.779-3.512s3.161,2.094,4.003,0.593c0.847-1.499-1.879-2.699-1.879-2.699
			s2.573,0.42,2.652-1.119c0.076-1.537-2.353-0.988-2.353-0.988s0.461-1.517-0.156-2.61c-0.569-1.013-2.058-0.091-3.241,1.07
			c-0.101,0.094-0.196,0.192-0.287,0.291c-1.219,1.287-16.7-6.158-16.7-6.158L40.866,51.086z"/>
		<path fill="#65CCEF" d="M8.005,30.595c0,0,11.226,9.072,21.872,11.579c10.647,2.502,16.989,4.294,16.989,4.294l-2.413,6.813
			l-7.479-1.608c0,0,4.855,24.792,6.575,29.268L1.983,78.237l9.747-34.448l-8.951-7.216L8.005,30.595z"/>
		<path fill="#E3A888" d="M27.871,39.254c0,0-1.252,5.152-3.704,5.813c-1.952,0.525-3.742-0.352-2.776-4.096
			C22.354,37.23,27.871,39.254,27.871,39.254z"/>
		<path fill="#E3A888" d="M7.102,23.885c0,0-3.717-1.724-4.047,2.533c-0.333,4.252,5.749,3.501,5.749,3.501
			s3.331,11.849,18.615,12.499c15.289,0.651,18.313-10.333,18.313-10.333s4.751,0.411,6.029-3.175
			c1.276-3.586-2.901-2.961-2.901-2.961S39.108,3.984,34.27,4.822c-4.834,0.84-24.608,11.16-24.608,11.16L7.102,23.885z"/>
		<path fill="#391217" d="M34.368,10.403c0,0-21.947,15.659-27.267,13.482c0,0,1.624-30.514,29.689-22.563
			c19.267,5.457,13.014,25.293,13.014,25.293S38.153,28.935,34.368,10.403z"/>
		<path fill="#010101" d="M20.991,23.887c0.945,0.078,1.587,0.625,1.572,1.272l-3.802-0.321
			C19.123,24.219,20.049,23.805,20.991,23.887z"/>
		<path fill="#010101" d="M38.466,26.753c1.017,0.313,1.583,0.976,1.401,1.564L35.77,27.05
			C36.325,26.578,37.446,26.438,38.466,26.753z"/>
		<path fill="#C2866D" d="M27.345,31.666c0,0-0.036,1.563-0.784,1.587c-0.749,0.024,0.857,0.665,1.352-0.073
			C28.406,32.439,27.827,31.447,27.345,31.666z"/>
		<path fill="#C2866D" d="M7.244,25.436l0.314,3.281c0,0-2.866,0.098-3.352-2.15C3.72,24.32,7.244,25.436,7.244,25.436z"/>
		<path fill="#C2866D" d="M47.129,30.372l0.879-3.366c0,0,1.836-0.76,2.002,0.944C50.182,29.656,48.084,30.737,47.129,30.372z"/>
		<path fill="#ED1868" d="M9.561,49.715c5.168,1.021,22.573,4.472,27.885,5.521c0.075,0.488,0.153,1.01,0.237,1.555L9.286,51.166
			L9.561,49.715z"/>
		<polygon fill="#65CCEF" points="18.745,9.713 20.054,5.229 16.031,5.963 18.213,9.808 16.18,14.19 20.852,13.577 		"/>
		<path fill="#D84853" d="M30.443,36.716c-0.354,0.352-6.592-0.692-7.262-2.039c-0.67-1.347,0.797,6.795,6.908,2.391"/>
	</g>
	<g>
		<path fill="#010101" d="M134.182,16.451c-1.53-2.56-4.07-4.278-7.253-4.347c-0.481,1.246,1.513,2.734,2.64,3.174
			c-1.742-0.258-4.236-0.603-5.744,0.674c0.555,1.698,3.02,2.784,4.725,2.805c-2.793,0.284-5.772,2.826-1.807,3.772
			c2.636,0.629,5.716-0.514,7.608-2.33"/>
		<path fill="#010101" d="M137.432,12.893c0.255-2.971-0.802-5.851-3.344-7.768c-1.119,0.729-0.372,3.105,0.287,4.119
			c-1.264-1.228-3.085-2.965-5.055-2.812c-0.542,1.703,0.821,4.024,2.193,5.039c-2.432-1.403-6.334-1.083-3.67,2.004
			c1.77,2.051,4.938,2.925,7.535,2.558"/>
		<path fill="#010101" d="M177.448,11.758c-0.284-3.611,0.894-7.111,3.725-9.441c1.247,0.887,0.415,3.773-0.319,5.006
			c1.407-1.492,3.437-3.604,5.631-3.417c0.604,2.069-0.916,4.893-2.444,6.126c2.709-1.706,7.056-1.316,4.089,2.436
			c-1.972,2.493-5.501,3.556-8.395,3.109"/>
		<path fill="#9F796F" d="M165.054,91.702c-2.271-0.095-3.679-0.211-4.545-0.307c0.001-0.007,0-0.013,0.001-0.021
			c0.183-2.134-0.264-10.46-0.264-10.46l6.135-1.119l0.23,9.201c0,0,0.963,0.023,2.096,0.138
			C168.909,89.995,168.918,91.864,165.054,91.702z"/>
		<path fill="#882168" d="M167.217,94.765c-5.847,0.138-6.854-0.383-6.612-3.384c0.866,0.093,2.274,0.204,4.547,0.289
			c3.863,0.146,3.848-1.722,3.643-2.581c1.407,0.138,3.078,0.417,3.487,0.983C173.018,91.096,173.075,94.623,167.217,94.765z"/>
		<path fill="#9F796F" d="M152.203,92.172c2.271,0.01,3.683-0.041,4.554-0.097c-0.001-0.009,0-0.014,0-0.019
			c-0.086-2.145,0.744-10.438,0.744-10.438l-6.079-1.4l-0.65,9.182c0,0-0.964-0.022-2.099,0.04
			C148.428,90.29,148.336,92.156,152.203,92.172z"/>
		<path fill="#882168" d="M150.118,95.203c5.838,0.361,6.861-0.119,6.736-3.127c-0.871,0.06-2.281,0.116-4.553,0.114
			c-3.867-0.001-3.783-1.867-3.542-2.718c-1.413,0.084-3.094,0.3-3.521,0.852C144.462,91.316,144.269,94.839,150.118,95.203z"/>
		<path fill="#9F796F" d="M148.407,45.958c0,0-6.809,0.574-9.454,0.445c-2.648-0.132-10.618-0.808-10.618-0.808
			s-3.308-1.387-4.038-1.786c-0.729-0.397-2.168-0.854-2.334-0.247c-0.168,0.605,1.729,1.429,1.729,1.429s-2.809-0.894-3.049-0.02
			c-0.238,0.878,3.113,1.14,3.113,1.14s-3.023-0.378-3.299,0.634c-0.28,1.009,3.33,0.623,3.33,0.623s-3.13,0.541-2.748,1.322
			c0.383,0.78,3.056-0.271,3.056-0.271s-1.271,1.645-0.589,1.867c0.688,0.217,1.874-0.578,2.001-1.05c0,0,2.226,0.858,3.301,0.472
			c0,0,17.707,3.893,19.392,2.086C149.891,49.986,148.407,45.958,148.407,45.958z"/>
		<path fill="#9F796F" d="M167.058,46.243c0,0,6.53-0.147,9.017-0.536c2.485-0.395,9.929-1.841,9.929-1.841s2.924-1.643,3.556-2.092
			c0.631-0.45,1.925-1.025,2.172-0.475c0.248,0.556-1.424,1.527-1.424,1.527s2.525-1.129,2.884-0.326
			c0.355,0.796-2.778,1.389-2.778,1.389s2.808-0.667,3.22,0.257c0.416,0.923-3.059,0.926-3.059,0.926s3.041,0.193,2.797,0.964
			c-0.245,0.776-2.931,0.058-2.931,0.058s1.448,1.422,0.831,1.697c-0.615,0.276-1.857-0.353-2.05-0.776c0,0-1.977,1.025-3.052,0.771
			c0,0-16.182,5.462-18.051,3.935C166.255,50.188,167.058,46.243,167.058,46.243z"/>
		<path fill="#010101" d="M182.977,26.7c0,0,2.86-14.316-9.395-22.342c-12.26-8.024-34.866-4.114-39.205,7.397
			c-4.181,11.097-1.293,19.377,0.201,20.666c1.492,1.287,40.188-1.93,40.134-1.636C174.656,31.079,182.977,26.7,182.977,26.7z"/>
		<path fill="#9F796F" d="M181.677,26.218c0,0,3.314-2.303,3.679,0.784c0.282,2.383-1.56,3.785-4.007,3.836
			c0,0-0.444,16.847-21.623,17.408c-21.663,0.579-23.896-13.203-23.896-13.203s-2.521,1.313-3.405-1.511
			c-0.788-2.525,1.471-2.657,2.376-2.607c0.904,0.048,5.178-4.731,11.472-5.846c0,0,0.657-7.468,2.608-10.564
			c0,0-0.221,9.077,0.73,10.07l12.522-1.274l-0.193-10.835l1.513,10.851C163.452,23.328,176.884,24.47,181.677,26.218z"/>
		<path fill="#333333" d="M158.153,34.109c-0.203,0.218,0.491,1.296,0.045,1.528c-0.445,0.228,0.673,0.212,0.939-0.146
			C159.4,35.128,158.404,33.849,158.153,34.109z"/>
		<path fill="#F1719C" d="M163.316,39.564c0,0-5.438,2.24-9.356,0.416C153.96,39.98,157.908,45.964,163.316,39.564z"/>
		<path fill="#71CAC8" d="M172.652,67.672l7.099,6.801c0,0-14.508,13.319-36.633,4.016l3.187-8.116
			C146.305,70.372,160.91,71.63,172.652,67.672z"/>
		<path fill="#882168" d="M171.315,45.428c0,0-7.638,1.627-14.672,2.023c-7.032,0.396-12.745-2.433-12.745-2.433l-2.136,7.327
			l5.999,1.743l-1.276,17.003c0,0,11.326,0.283,14.81-0.179c3.485-0.46,11.537-2.522,11.537-2.522l-4.719-15.765l4.517-0.615
			L171.315,45.428z"/>
		<g>
			<g>
				<path fill="#010101" d="M146.131,30.668c0.165,0.823,0.965,1.36,1.788,1.192c0.825-0.161,1.357-0.966,1.194-1.788
					c-0.164-0.825-0.966-1.358-1.791-1.193C146.503,29.043,145.967,29.846,146.131,30.668z"/>
			</g>
			<circle fill="#FFFFFF" cx="147.271" cy="30.344" r="0.268"/>
		</g>
		<g>
			<g>
				<path fill="#010101" d="M165.323,29.147c0.164,0.823,0.965,1.359,1.788,1.193c0.825-0.163,1.357-0.967,1.193-1.789
					c-0.163-0.824-0.965-1.358-1.791-1.193C165.695,27.522,165.159,28.325,165.323,29.147z"/>
			</g>
			<path fill="#FFFFFF" d="M166.195,28.811c-0.006,0.148,0.109,0.272,0.257,0.28c0.147,0.005,0.274-0.108,0.28-0.257
				c0.006-0.148-0.109-0.273-0.259-0.279C166.328,28.548,166.203,28.662,166.195,28.811z"/>
		</g>
		<polygon fill="#71CAC8" points="134.411,12.596 132.718,7.031 137.886,8.575 135.076,12.626 137.099,17.489 131.422,16.732 		"/>
		<path fill="#71CAC8" d="M163.316,47.143c0,0,2.942,7.829-4.494,8.981c-7.438,1.152-8.192-3.488-7.969-8.086L163.316,47.143z"/>
	</g>
</g>
</svg>
