<?xml version="1.0" encoding="utf-8"?>
<!-- Generator: Adobe Illustrator 17.0.0, SVG Export Plug-In . SVG Version: 6.00 Build 0)  -->
<!DOCTYPE svg PUBLIC "-//W3C//DTD SVG 1.1//EN" "http://www.w3.org/Graphics/SVG/1.1/DTD/svg11.dtd">
<svg version="1.1" id="Layer_1" xmlns="http://www.w3.org/2000/svg" xmlns:xlink="http://www.w3.org/1999/xlink" x="0px" y="0px"
	 width="255.173px" height="127.195px" viewBox="0 0 255.173 127.195" enable-background="new 0 0 255.173 127.195"
	 xml:space="preserve">
<path fill="#F5CEB3" d="M44.335,67.67c0,0-20.837-2.241-23.751-2.766C17.672,64.38,8.928,62.48,8.928,62.48
	s-3.461-2.012-4.208-2.554c-0.756-0.551-2.29-1.263-2.561-0.614c-0.27,0.646,1.712,1.835,1.712,1.835s-2.985-1.393-3.369-0.458
	c-0.4,0.932,3.28,1.716,3.28,1.716s-3.296-0.863-3.746,0.224c-0.454,1.079,3.606,1.165,3.606,1.165s-3.548,0.146-3.236,1.075
	c0.307,0.915,3.42,0.137,3.42,0.137s-1.644,1.645-0.914,1.979c0.723,0.344,2.149-0.365,2.365-0.865c0,0,2.341,1.267,3.585,0.987
	c0,0,32.283,8.767,34.409,7.006C45.408,72.343,44.335,67.67,44.335,67.67z"/>
<g>
	<path fill="#FDD7C4" d="M202.552,124.008c-0.407-0.535-0.61-1.077-0.723-1.566c1.393-0.254,2.496-0.34,2.496-0.34l1.64-18.726
		l8.191-0.044c0,0-1.593,14.914-3.146,21.387C208.679,124.953,203.531,125.302,202.552,124.008z"/>
	<path fill="#FDD7C4" d="M232.051,124.835c-0.652-0.177-1.142-0.47-1.533-0.788c0.94-1.058,1.754-1.808,1.754-1.808l-8.648-16.554
		l4.834-4.282c0,0,7.929,12.722,10.693,18.782C237.46,121.802,233.622,125.253,232.051,124.835z"/>
	<path fill="#FDD7C4" d="M203.587,66.719l-15.712-6.162c0,0-1.024,5.655-2.161,4.064c-1.135-1.591-0.692-3.101-0.692-3.101
		s-4.533,2.996-4.957,0.858c-0.421-2.135,3.121-3.115,3.121-3.115s-4.659,0.077-4.554-2.033c0.109-2.108,3.731-1.554,3.731-1.554
		s-2.95-1.259-2.024-2.903c0.932-1.647,3.093,0.526,3.093,0.526s0.519-1.879,1.88-2.601c1.252-0.672,2.194,1.259,2.663,3.242
		c0.038,0.165,0.076,0.328,0.105,0.491c0.423,2.14,15.004,3.461,15.004,3.461L203.587,66.719z"/>
	<path fill="#A6CCEA" d="M215.69,59.249l-15.904-2.05l-0.616,10.717l6.025,2.959l-0.482,21.73l29.407-8.821l-1.368-13.237
		l6.599,2.073l2.544-9.014C241.895,63.606,221.56,58.516,215.69,59.249z"/>
	<path fill="#FDD7C4" d="M214.745,54.573l-0.287,6.867c0,0,1.133,3.057,4.502,2.857c3.37-0.2,4.798-2.451,4.798-2.451l-0.555-7.206
		L214.745,54.573z"/>
	<path fill="#3A6B92" d="M204.974,74.837l-1.613,39.381l11.336,1.08l4.126-14.898l9.182,16.091l8.125-3.361
		c0,0-1.066-19.785-1.148-22.792c-0.08-3.006-1.34-15.051-1.34-15.051L204.974,74.837z"/>
	<path fill="#BEA4AB" d="M226.882,60.923c0,0-0.789,0.889-1.107,3.948c-0.315,3.063,0.352,11.808,0.352,11.808l3.294,0.24
		c0,0,0.664-15.105,0.212-15.835C229.178,60.354,227.704,60.594,226.882,60.923z"/>
	<path fill="#BEA4AB" d="M208.575,60.144c0,0-0.788,0.889-1.105,3.948c-0.317,3.064,0.351,11.808,0.351,11.808l3.294,0.24
		c0,0,0.667-15.105,0.213-15.835C210.873,59.577,209.398,59.814,208.575,60.144z"/>
	<path fill="#5B3E1D" d="M195.266,29.461c0,0,0.554-16.967,15.728-26.282c12.253-7.518,25.75-0.489,36.827,8.489
		c0,0,8.77-0.217,7.152,16.867c-1.613,17.081-9.564,19.305-9.564,19.305s-29.697-12.715-30.672-12.999
		C213.76,34.554,195.871,37.143,195.266,29.461z"/>
	<path fill="#FDD7C4" d="M229.775,14.334c-7.645-0.854-27.147-3.389-33.574,14.448c0,0-4.548-1.438-5.057,2.117
		c-0.514,3.548,4.644,3.999,4.644,3.999s-1.58,18.047,21.49,25.223c23.067,7.18,27.963-8.1,27.963-8.1s5.553,2.364,7.322-1.875
		c1.771-4.243-4.052-5.313-4.052-5.313S257.139,17.384,229.775,14.334z"/>
	<path fill="#DCB59E" d="M223.228,45.333c0,0,0.169,1.103-0.637,1.424c-0.8,0.322,0.963,0.892,1.321-0.139
		C224.277,45.587,224,45.222,223.228,45.333z"/>
	<path fill="#5B3E1D" d="M196.2,28.782c0,0,12.226-4.548,15.581-11.899c0,0,0.993,11.952,7.018,15.289c0,0-1.433-4.029-0.509-5.897
		c0,0,5.717,9.121,14.048,11.445c0,0-3.839-4.695-3.199-8.098c0,0,4.273,8.749,13.788,10.907c0,0-1.711-3.234-1.737-4.234
		c0,0,6.658,5.15,7.322,8.539c0,0,7.041-13.692,1.143-21.504c-5.901-7.811-23.729-14.79-29.741-14.63
		C213.901,8.858,195.187,18.581,196.2,28.782z"/>
	<circle fill="#FFFFFF" cx="209.27" cy="77.436" r="1.429"/>
	<path fill="#FFFFFF" d="M228.802,77.386c-0.11,0.782-0.831,1.324-1.613,1.217c-0.78-0.111-1.324-0.832-1.217-1.612
		c0.108-0.782,0.831-1.326,1.615-1.217C228.365,75.883,228.909,76.605,228.802,77.386z"/>
	<polygon fill="#57AFD0" points="202.992,109.73 202.666,114.453 215.472,115.686 216.079,111.333 	"/>
	<polygon fill="#57AFD0" points="225.298,112.842 227.627,116.825 237.339,112.412 235.693,108.3 	"/>
	<g>
		<g>
			<path fill="#010101" d="M231.993,45.694c-0.872,0.107-1.668-0.514-1.775-1.387c-0.11-0.874,0.518-1.67,1.388-1.777
				c0.877-0.108,1.671,0.514,1.776,1.388C233.49,44.789,232.87,45.587,231.993,45.694z"/>
		</g>
		<circle fill="#FFFFFF" cx="231.943" cy="44.451" r="0.281"/>
	</g>
	<g>
		<g>
			<path fill="#010101" d="M213.148,39.903c-0.873,0.11-1.672-0.514-1.778-1.387c-0.108-0.874,0.518-1.668,1.388-1.775
				c0.877-0.108,1.67,0.512,1.778,1.388C214.641,38.999,214.02,39.798,213.148,39.903z"/>
		</g>
		<path fill="#FFFFFF" d="M213.194,38.922c-0.146,0.058-0.307-0.016-0.361-0.162c-0.058-0.144,0.018-0.307,0.163-0.363
			c0.144-0.053,0.309,0.019,0.363,0.165C213.411,38.708,213.341,38.869,213.194,38.922z"/>
	</g>
	<path fill="#D84853" d="M215.305,48.371c0,0,2.46,6.099,11.864,4.229C227.169,52.6,217.356,59.644,215.305,48.371z"/>
</g>
<g>
	<g>
		<path fill="#F5CEB3" d="M52.53,103.787l1.691,16.43c0,0-6.399,1.586-6.856,3.168c-0.459,1.586-0.705,3.638,1.233,3.39
			c1.937-0.252,12.917,0.363,13.203-2.259c0.279-2.628-1.123-17.382-1.38-18.333c-0.249-0.954,0.589-4.438,0.589-4.438
			S52.166,101.623,52.53,103.787z"/>
		<path fill="#210D10" d="M47.364,123.385c-0.459,1.586-0.705,3.638,1.233,3.39c1.937-0.252,12.917,0.363,13.203-2.259
			c0.06-0.584,0.035-1.773-0.035-3.265c-1.97,0.409-5.536,1.091-7.684,1.202c-2.054,0.109-3.022-0.616-3.447-1.116
			C49.086,121.917,47.578,122.65,47.364,123.385z"/>
		<polygon fill="#210D10" points="51.693,120.78 55.254,123.523 56.011,123.15 52.333,120.469 		"/>
		<path fill="#F5CEB3" d="M75.314,103.771l-4.553,15.879c0,0,6.021,2.684,6.195,4.32c0.174,1.644,0.055,3.708-1.81,3.122
			c-1.861-0.588-12.778-1.91-12.596-4.543c0.185-2.635,4.155-16.916,4.575-17.803c0.415-0.898,0.196-4.477,0.196-4.477
			S76.049,101.705,75.314,103.771z"/>
		<path fill="#210D10" d="M76.956,123.97c0.174,1.644,0.055,3.708-1.81,3.122c-1.861-0.588-12.778-1.91-12.596-4.543
			c0.041-0.586,0.274-1.754,0.604-3.207c1.868,0.747,5.259,2.045,7.353,2.531c2.005,0.466,3.085-0.077,3.592-0.495
			C75.519,122.222,76.873,123.209,76.956,123.97z"/>
		<polygon fill="#210D10" points="73.152,120.647 69.165,122.723 68.484,122.22 72.576,120.226 		"/>
		<path fill="#F5CEB3" d="M74.718,67.442c0,0,7.586-0.838,10.459-1.556c2.87-0.711,11.471-3.184,11.471-3.184
			s3.322-2.228,4.031-2.82c0.721-0.598,2.203-1.41,2.519-0.777c0.311,0.626-1.589,1.941-1.589,1.941s2.889-1.583,3.332-0.679
			c0.46,0.903-3.164,1.926-3.164,1.926s3.232-1.075,3.757-0.019c0.523,1.047-3.524,1.396-3.524,1.396s3.55-0.087,3.298,0.861
			c-0.246,0.931-3.401,0.359-3.401,0.359s1.747,1.535,1.042,1.916c-0.702,0.393-2.171-0.223-2.417-0.708
			c0,0-2.255,1.415-3.515,1.221c0,0-18.573,8.1-20.811,6.479C73.956,72.176,74.718,67.442,74.718,67.442z"/>
		<path fill="#5D180C" d="M75.053,64.72c0,0,4.941-3.862,8.672,1.007c0,0,0.517-1.798,1.503-0.788
			c0.987,1.009-0.314,2.351-0.314,2.351s2.019-0.317,1.729,1.089c-0.29,1.403-1.363,0.694-1.363,0.694s2.403,1.13,1.83,2.719
			c-0.572,1.591-1.411,0.93-1.411,0.93s-6.614,7.348-10.931,3.189C70.452,71.75,75.053,64.72,75.053,64.72z"/>
		<path fill="#5D180C" d="M50.506,77.839c0,0-9.351,2.125-10.33-3.929c0,0-1.305,1.34-1.696-0.018
			c-0.393-1.357,1.391-1.922,1.391-1.922s-1.928-0.677-1.007-1.777c0.921-1.098,1.531,0.035,1.531,0.035s-1.584-2.133-0.325-3.264
			c1.258-1.13,1.686-0.147,1.686-0.147s9.305-3.335,11.134,2.373C54.719,74.895,50.506,77.839,50.506,77.839z"/>
		<path fill="#5D180C" d="M75.137,85.119c0.29-3.736-0.993-6.162-0.784-9.803c0.209-3.649,1.539-10.563,1.539-10.563l-9.872-2.466
			l-7.432,1.813l-6.92,2.212c0,0-1.147,2.45-1.577,5.197c-0.328,2.044,0.554,8.847,0.012,13.13
			C53.53,85.123,67.046,85.884,75.137,85.119z"/>
		<path fill="#FFFFFF" d="M58.698,63.377c0,0-4.318,4.634-0.63,6.558c3.685,1.92,5.857-4.436,5.857-4.436s1.864,6.331,5.486,5.75
			c3.617-0.584,0.9-8.582-1.619-9.328C65.269,61.179,58.698,63.377,58.698,63.377z"/>
		<path fill="#D79E77" d="M62.843,66.238c2.309-0.062,4.757-1.495,4.682-3.992l-2.14-0.539l-4.553,1.114l-0.53,0.165
			C60.428,63.941,60.921,66.286,62.843,66.238z"/>
		<path fill="#E2B190" d="M51.668,66.313l-0.01,0.018c0.018-0.007,0.039-0.028,0.056-0.032L51.668,66.313z"/>
		<path fill="#E9A6B5" d="M53.933,65.587l-2.514,18.248c0.616,0.077,1.296,0.167,2.052,0.253l2.819-19.25L53.933,65.587z"/>
		<path fill="#E9A6B5" d="M71.503,63.655l-2.508,21.622c0.716,0.016,1.412,0.021,2.089,0.02l2.598-21.09L71.503,63.655z"/>
		<path fill="#E9A6B5" d="M52.957,72.469c0,0-3.887,18.852-12.241,28.75c0,0,6.957,11.46,28.91,6.948
			c12.804-2.631,16.153-6.779,16.153-6.779S72.106,81.792,72.308,72.259c0,0-1.686,4.883-10.173,4.199
			c-7.869-0.631-6.907-3.897-6.907-3.897L52.957,72.469z"/>
		<path fill="#F5CEB3" d="M83.439,43.196c0.309,11.606-9.836,21.292-22.66,21.632c-12.827,0.34-23.914-8.819-24.221-20.427
			C36.252,32.795,46.84,23.136,59.665,22.798C72.489,22.457,83.134,31.589,83.439,43.196z"/>
		<path fill="#D79E77" d="M60.049,51.063c0,0-1.966,1.028-1.454-1.043c0,0-0.261-0.42-0.539,0.168
			c-0.282,0.591,0.328,1.854,1.317,1.535C60.352,51.389,60.049,51.063,60.049,51.063z"/>
		<path fill="#B71F25" d="M37.942,50.748c0,0-3.798-11.385,8.975-15.488l7.116-10.438l2.173,7.009l10.658-5.911
			c0,0,14.472,5.355,16,14.202l3.529,5.748c0,0,6.109-6.499,5.313-15.862c-0.8-9.365-4.136-24.966-33.474-23.79L50.197,7.66
			c0,0-15.686,4.59-18.213,17.577c-2.531,12.981-2.037,23.848,4.494,28.642L37.942,50.748z"/>
		<path fill="#F5CEB3" d="M84.149,39.948c-0.5,0.013-0.984,0.125-1.421,0.313c0.252,0.993,0.391,2.021,0.421,3.075
			c0.03,1.135-0.08,2.238-0.305,3.313c0.458,0.173,0.967,0.272,1.491,0.259c2.035-0.056,3.64-1.656,3.588-3.578
			C87.871,41.411,86.187,39.896,84.149,39.948z"/>
		<path fill="#D79E77" d="M84.716,41.576c-0.268,0.007-0.526,0.065-0.752,0.167c0.13,0.524,0.205,1.065,0.221,1.623
			c0.018,0.597-0.044,1.181-0.162,1.749c0.242,0.091,0.511,0.146,0.788,0.137c1.075-0.03,1.921-0.875,1.895-1.888
			C86.678,42.349,85.787,41.548,84.716,41.576z"/>
		<path fill="#F5CEB3" d="M37.036,50.799c0.414-0.282,0.877-0.477,1.338-0.579c0.377,0.953,0.861,1.867,1.454,2.738
			c0.642,0.937,1.375,1.768,2.189,2.506c-0.27,0.412-0.621,0.788-1.058,1.086c-1.681,1.147-3.918,0.786-5.004-0.8
			C34.875,54.161,35.356,51.946,37.036,50.799z"/>
		<path fill="#D79E77" d="M37.534,52.447c0.221-0.151,0.46-0.253,0.705-0.304c0.2,0.501,0.456,0.982,0.77,1.445
			c0.337,0.493,0.725,0.933,1.154,1.323c-0.144,0.219-0.33,0.416-0.558,0.57c-0.886,0.607-2.072,0.417-2.642-0.419
			C36.393,54.222,36.649,53.05,37.534,52.447z"/>
		<path fill="#F7A4AC" d="M52.209,55.061c0.063,2.37-1.809,4.343-4.178,4.406c-2.37,0.061-4.343-1.809-4.402-4.175
			c-0.063-2.373,1.807-4.346,4.174-4.406C50.172,50.82,52.145,52.693,52.209,55.061z"/>
		<path fill="#F7A4AC" d="M81.403,47.961c0.061,2.37-1.811,4.343-4.178,4.408c-2.37,0.06-4.341-1.81-4.406-4.18
			c-0.062-2.37,1.807-4.343,4.178-4.404C79.366,43.721,81.339,45.591,81.403,47.961z"/>
		<g>
			<g>
				<path fill="#010101" d="M51.865,46.035c-0.153,0.765-0.893,1.263-1.66,1.108c-0.77-0.151-1.263-0.898-1.112-1.661
					c0.154-0.769,0.898-1.263,1.663-1.11C51.523,44.524,52.017,45.27,51.865,46.035z"/>
			</g>
			<circle fill="#FFFFFF" cx="50.347" cy="45.921" r="0.25"/>
		</g>
		<g>
			<g>
				<path fill="#010101" d="M73.288,42.165c-0.154,0.767-0.9,1.265-1.666,1.11c-0.768-0.151-1.263-0.9-1.112-1.665
					c0.152-0.769,0.901-1.267,1.668-1.114C72.941,40.652,73.441,41.399,73.288,42.165z"/>
			</g>
			<circle fill="#FFFFFF" cx="72.225" cy="41.863" r="0.249"/>
		</g>
		<polygon fill="#B71F25" points="31.627,44.326 17.691,39.79 17.349,47.346 19.421,48.39 18.395,51.797 21.752,56.96 
			31.395,46.164 		"/>
		<polygon fill="#B71F25" points="89.713,38.259 105.355,37.41 103.789,44.814 101.37,45.298 101.568,48.857 96.767,53.003 
			89.483,40.097 		"/>
		<path fill="#CCC36B" d="M29.343,44.019c0.455-0.898,1.819-1.211,1.819-1.211l0.844,3.436l0.673,0.327
			c-0.125,0.087-1.27,0.072-1.356,0.186C29.576,46.773,29.343,44.019,29.343,44.019z"/>
		<path fill="#CCC36B" d="M92.94,38.254c-0.507-0.878-1.88-1.119-1.88-1.119l-1.321,3.84l0,0c0.128,0.079,0.235,0.177,0.33,0.282
			C91.812,41.181,92.94,38.254,92.94,38.254z"/>
		<path fill="#B71F25" d="M46.882,42.278c0,0,1.729-1.863,3.361-1.314c1.631,0.549,0.414,0.456,0.414,0.456L46.882,42.278z"/>
		<path fill="#B71F25" d="M73.199,38.863c0,0-2.233-1.263-3.666-0.244c-1.43,1.019-0.268,0.564-0.268,0.564L73.199,38.863z"/>
	</g>
	<path fill="#D84853" d="M57.609,55.985l10.256-3.148c0,0-2.463,8.562-10.15,3.701"/>
</g>
<g>
	<path fill="#F4C797" d="M154.403,70.112c0,0,7.867-1.895,10.792-3.029c2.929-1.135,11.636-4.871,11.636-4.871
		s3.203-2.792,3.875-3.513c0.672-0.721,2.119-1.77,2.533-1.15c0.41,0.617-1.412,2.252-1.412,2.252s2.822-2.05,3.422-1.159
		c0.594,0.898-3.079,2.445-3.079,2.445s3.257-1.556,3.948-0.521c0.689,1.032-3.511,1.944-3.511,1.944s3.718-0.559,3.583,0.461
		c-0.142,1.021-3.538,0.835-3.538,0.835s2.044,1.375,1.357,1.88c-0.692,0.5-2.322,0.051-2.64-0.433c0,0-2.18,1.796-3.536,1.763
		c0,0-18.452,10.983-21.023,9.581C154.238,75.193,154.403,70.112,154.403,70.112z"/>
	<path fill="#F4C797" d="M131.253,122.569c2.692-0.102,4.358-0.231,5.387-0.342c-0.002-0.009,0-0.018-0.002-0.025
		c-0.205-2.527,0.359-12.387,0.359-12.387l-7.261-1.356l-0.314,10.898c0,0-1.14,0.024-2.484,0.152
		C126.695,120.531,126.677,122.743,131.253,122.569z"/>
	<path fill="#CA7A29" d="M128.808,126.233c6.925,0.165,8.116-0.452,7.832-4.006c-1.028,0.11-2.694,0.24-5.387,0.342
		c-4.576,0.174-4.559-2.038-4.315-3.059c-1.668,0.165-3.646,0.497-4.129,1.167C121.934,121.888,121.867,126.067,128.808,126.233z"/>
	<path fill="#F4C797" d="M153.478,123.488c-2.691,0-4.36-0.067-5.392-0.135c0-0.011,0-0.018,0-0.024
		c0.111-2.538-0.835-12.366-0.835-12.366l7.205-1.631l0.732,10.878c0,0,1.14-0.021,2.485,0.056
		C157.956,121.275,158.06,123.485,153.478,123.488z"/>
	<path fill="#CA7A29" d="M156.064,127.054c-6.915,0.432-8.128-0.14-7.978-3.701c1.032,0.068,2.701,0.135,5.392,0.135
		c4.582-0.004,4.478-2.214,4.195-3.222c1.675,0.102,3.666,0.357,4.173,1.01C162.764,122.452,162.992,126.624,156.064,127.054z"/>
	<path fill="#F4C797" d="M133.828,68.165c0,0-7.733-0.203-10.678-0.679c-2.943-0.479-11.754-2.226-11.754-2.226
		s-3.455-1.956-4.201-2.491c-0.747-0.537-2.277-1.223-2.571-0.574c-0.296,0.66,1.68,1.816,1.68,1.816s-2.987-1.347-3.413-0.4
		c-0.426,0.942,3.283,1.659,3.283,1.659s-3.324-0.803-3.815,0.289c-0.498,1.091,3.619,1.11,3.619,1.11s-3.603,0.216-3.317,1.129
		c0.284,0.921,3.469,0.081,3.469,0.081s-1.72,1.679-0.991,2.007c0.726,0.329,2.203-0.409,2.431-0.91c0,0,2.338,1.222,3.611,0.928
		c0,0,19.144,6.544,21.364,4.741C134.763,72.841,133.828,68.165,133.828,68.165z"/>
	<path fill="#9D3121" d="M127.11,94.446l-8.411,8.054c0,0,17.186,15.779,43.395,4.757l-3.776-9.612
		C158.318,97.645,141.018,99.134,127.11,94.446z"/>
	<path fill="#CA7A29" d="M128.692,68.096c0,0,9.047,1.926,17.379,2.396c8.331,0.468,15.097-2.882,15.097-2.882l2.531,8.681
		l-7.109,2.064l1.516,20.14c0,0-13.416,0.335-17.543-0.211c-4.129-0.545-13.668-2.989-13.668-2.989l5.592-18.673l-5.352-0.729
		L128.692,68.096z"/>
	<path fill="#3D1A0C" d="M114.878,45.91c0,0-3.389-16.956,11.131-26.461c14.521-9.507,41.3-4.874,46.438,8.76
		c4.954,13.145,1.531,22.951-0.237,24.477c-1.768,1.526-47.604-2.284-47.54-1.935C124.735,51.1,114.878,45.91,114.878,45.91z"/>
	<path fill="#F4C797" d="M116.419,45.342c0,0-3.927-2.727-4.358,0.928c-0.333,2.824,1.847,4.483,4.748,4.543
		c0,0,0.524,19.957,25.612,20.622c25.661,0.686,28.308-15.639,28.308-15.639s2.984,1.554,4.033-1.791
		c0.933-2.989-1.742-3.146-2.815-3.088c-1.07,0.058-6.134-5.603-13.588-6.921c0,0-0.779-8.851-3.09-12.517
		c0,0,0.261,10.754-0.863,11.929l-14.837-1.508l0.23-12.836l-1.791,12.857C138.006,41.92,122.097,43.272,116.419,45.342z"/>
	<path fill="#D2A88B" d="M144.282,54.689c0.242,0.258-0.581,1.535-0.051,1.81c0.526,0.268-0.798,0.25-1.114-0.174
		C142.805,55.896,143.986,54.379,144.282,54.689z"/>
	<path fill="#010101" d="M129.767,49.122c-1.338,0.018-2.417,1.021-2.585,2.308l5.229-0.068
		C132.207,50.076,131.102,49.102,129.767,49.122z"/>
	<path fill="#010101" d="M156.478,50.194c-1.335,0.017-2.416,1.023-2.585,2.306l5.229-0.064
		C158.917,51.151,157.811,50.177,156.478,50.194z"/>
	<polygon fill="#010101" points="157.835,50.55 160.147,50.043 158.291,50.891 159.435,51.177 158.879,51.675 	"/>
	<polygon fill="#010101" points="129.141,49.03 127.675,48.662 128.241,49.506 126.779,49.804 127.671,50.576 	"/>
	<path fill="#F1719C" d="M139.793,62.052c0,0,5.136,2.447,9.131-0.262C148.925,61.791,144.541,69.914,139.793,62.052z"/>
	<circle fill="#3D1A0C" cx="177.127" cy="28.369" r="6.974"/>
	<path fill="#3D1A0C" d="M121.907,25.383c-0.937,3.738-4.725,6.002-8.459,5.065c-3.738-0.937-6.007-4.724-5.067-8.46
		c0.938-3.736,4.727-6.006,8.461-5.067C120.576,17.858,122.846,21.647,121.907,25.383z"/>
</g>
</svg>
