<svg width="104" height="304" xmlns="http://www.w3.org/2000/svg">

 <g>
  <title>background</title>
  <rect fill="none" id="canvas_background" height="306" width="106" y="-1" x="-1"/>
 </g>
 <g>
  <title>Layer 1</title>
  <g id="XMLID_3141_">
   <path d="m28.6,273.349999c2.472,-1.399 4.469,2.522 2.009,3.915c-4.938,2.797 -5.71,9.531 -3.311,14.305c3.074,6.115 10.864,7.103 16.732,4.819c15.802,-6.147 13.342,-26.595 7.561,-38.864c-6.274,-13.317 -17.048,-24.811 -18.439,-40.027c-1.468,-16.05 5.853,-30.892 11.978,-45.228c3.601,-8.43 6.946,-17.134 7.742,-26.342c0.821,-9.482 -0.859,-18.889 -3.222,-28.041c-0.709,-2.748 3.595,-3.671 4.301,-0.936c2.344,9.083 4.006,18.463 3.414,27.878c-0.591,9.403 -3.659,18.35 -7.272,26.977c-7.288,17.398 -17.691,36.65 -10.013,55.735c6.563,16.313 20.498,29.465 20.531,48.092c0.025,13.893 -10.084,28.386 -25.427,26.107c-6.771,-1.005 -12.072,-5.86 -13.297,-12.646c-1.117,-6.189 1.115,-12.575 6.713,-15.744z" fill="#FAD9BE" id="XMLID_3148_"/>
   <g id="XMLID_3142_">
    <path d="m58.115,114.409999l-5.996,0.359l-5.995,-0.359c0,0 -6.084,6.737 -3.557,9.23c2.012,1.983 5.995,2.572 9.552,2.572c3.558,0 7.541,-0.589 9.552,-2.572c2.528,-2.493 -3.556,-9.23 -3.556,-9.23z" fill="#67B700" id="XMLID_3147_"/>
    <g id="XMLID_3143_">
     <ellipse ry="57.706" rx="51.01" cy="59.333999" cx="52.12" fill="#7DED00" id="XMLID_3146_"/>
     <path d="m79.474,10.620999c4.46,8.571 7.021,18.56 7.021,29.225c0,31.87 -22.838,57.706 -51.011,57.706c-10.065,0 -19.449,-3.3 -27.354,-8.993c8.865,17.042 25.245,28.481 43.989,28.481c28.173,0 51.011,-25.836 51.011,-57.706c0,-20.484 -9.436,-38.472 -23.656,-48.713z" fill="#67B700" id="XMLID_3144_"/>
    </g>
   </g>
  </g>
  <g id="svg_1" opacity="0.3">
   <path id="svg_2" d="m52.286,66.049999l-0.314,0l-0.081,-0.035c-5.324,-0.064 -9.94,-1.737 -13.3,-4.956c-3.42,-3.303 -5.167,-7.359 -5.167,-12.007c0,-8.281 5.891,-14.256 12.896,-16.131l0,-5.921l11.896,0l0,5.927c7.037,1.989 12.706,8.227 12.706,16.701l0,1.18l-13.884,0l0,-1.18c0,-2.376 -2.299,-4.316 -4.828,-4.316c-2.411,0 -4.864,1.609 -4.864,3.729c0,2.161 2.492,3.757 4.864,3.757c5.377,0 10.091,1.683 13.574,4.98c3.406,3.306 5.138,7.369 5.138,12.04c0,8.351 -5.745,14.468 -12.706,16.347l0,5.683l-11.896,0l0,-5.85c-7.156,-1.953 -12.828,-8.283 -12.828,-16.845l0,-1.181l13.931,0l0,1.181c0,2.45 2.34,4.283 4.864,4.283c2.356,0 4.829,-1.402 4.829,-3.693c-0.001,-2.224 -2.498,-3.693 -4.83,-3.693z" fill="#406D00"/>
  </g>
 </g>
</svg>