<svg width="298" height="982" xmlns="http://www.w3.org/2000/svg">
 <g>
  <title>background</title>
  <rect fill="none" id="canvas_background" height="984" width="300" y="-1" x="-1"/>
 </g>
 <g>
  <title>Layer 1</title>
  <g id="svg_1">
   <rect id="svg_2" height="649" width="10" fill="#FAD9BE" y="332.953995" x="141.568008"/>
   <g id="XMLID_1_">
    <g id="XMLID_2_">
     <path d="m166.434008,329.276995l-17.505,1.049l-17.503,-1.049c0,0 -17.765,19.67 -10.385,26.948c5.874,5.791 17.504,7.51 27.888,7.51c10.385,0 22.015,-1.719 27.886,-7.51c7.383,-7.278 -10.381,-26.948 -10.381,-26.948z" fill="#001DAA" id="XMLID_6_"/>
     <g id="XMLID_3_">
      <ellipse ry="168.478" rx="148.929" cy="168.477995" cx="148.929008" fill="#001CEA" id="XMLID_5_"/>
      <path d="m228.793008,26.253995c13.021,25.026 20.497,54.185 20.497,85.325c0,93.048 -66.679,168.479 -148.931,168.479c-29.387,0 -56.783,-9.636 -79.862,-26.256c25.884,49.756 73.705,83.154 128.432,83.154c82.25,0 148.929,-75.43 148.929,-168.478c0,-59.803 -27.547,-112.325 -69.065,-142.224z" fill="#001DAA" id="XMLID_4_"/>
     </g>
    </g>
   </g>
  </g>
 </g>
</svg>