<?xml version="1.0" encoding="utf-8"?>
<!-- Generator: Adobe Illustrator 17.0.0, SVG Export Plug-In . SVG Version: 6.00 Build 0)  -->
<!DOCTYPE svg PUBLIC "-//W3C//DTD SVG 1.1//EN" "http://www.w3.org/Graphics/SVG/1.1/DTD/svg11.dtd">
<svg version="1.1" id="Logo" xmlns="http://www.w3.org/2000/svg" xmlns:xlink="http://www.w3.org/1999/xlink" x="0px" y="0px"
	 width="250px" height="150px" viewBox="0 0 250 150" enable-background="new 0 0 250 150" xml:space="preserve">
<g>
	<path fill-rule="evenodd" clip-rule="evenodd" fill="#FFFFFF" d="M117.862,26.073c3.539,0,6.385,0,10.113,0
		c0,8.325,0,16.442,0,25.455c2.614-0.968,4.186-1.499,5.719-2.127c15.051-6.192,31.08,1.07,36.219,16.424
		c5.345,15.955-3.074,32.429-18.707,36.624c-15.366,4.124-31.515-5.399-32.979-21.76C116.624,62.816,117.862,44.688,117.862,26.073z
		 M160.428,74.979c-0.148-9.148-7.115-16.305-15.923-16.356c-8.989-0.056-16.177,7.527-16.04,16.917
		c0.139,9.462,7.408,16.601,16.597,16.295C153.811,91.542,160.575,84.122,160.428,74.979z"/>
	<path fill-rule="evenodd" clip-rule="evenodd" fill="#FFFFFF" d="M2.873,26.079c4.166,0,7.021,0,10.721,0
		c0,8.344,0,16.456,0,25.371c2.602-1.021,4.19-1.647,5.781-2.267c11.59-4.522,23.829-1.365,31.375,8.089
		c7.485,9.378,8.164,23.683,1.613,33.9c-6.282,9.795-18.457,14.353-29.83,11.166c-11.607-3.256-19.37-13.047-19.59-25.755
		C2.656,59.926,2.873,43.261,2.873,26.079z M45.898,75.409c0.061-9.067-6.863-16.52-15.59-16.774
		c-9.061-0.263-16.39,7.071-16.475,16.489c-0.086,9.497,7.004,16.813,16.189,16.707C38.867,91.729,45.832,84.528,45.898,75.409z"/>
	<path fill-rule="evenodd" clip-rule="evenodd" fill="#FFFFFF" d="M103.485,79.157c3.054,0.611,6.051,1.211,9.005,1.8
		c-1.224,12.376-11.892,21.777-24.674,22.146c-13.31,0.382-24.463-8.868-26.127-21.666c5.214-2.224,9.049-3.06,12.784,3.604
		c5.315,9.495,19.085,9.073,25.458,0.166C101.203,83.426,102.165,81.423,103.485,79.157z"/>
	<path fill="#FFFFFF" d="M203.991,51.07c-1.44,0-3.346,0.354-6.087,0.895l-0.868,0.171v0.885c0,3.411-0.069,6.896-0.135,10.266
		c-0.155,7.882-0.317,16.032,0.378,24.005c0.758,8.713,7.902,15.702,18.204,17.806c1.639,0.337,3.285,0.506,4.899,0.506
		c4.677,0,9.242-1.356,14.253-4.251c0.127,0.904,0.228,1.62,0.229,2.314c0.004,0.819,0.015,1.642,0.026,2.465
		c0.037,2.698,0.075,5.486-0.176,8.174c-0.59,6.336-3.803,10.22-9.292,11.228c-1.117,0.205-2.26,0.311-3.4,0.311
		c-6.057,0-11.19-2.902-12.77-7.222c-0.84-2.291-2.343-5.34-5.689-5.34c-1.407,0-3.058,0.527-5.194,1.66l-0.688,0.365l0.131,0.769
		c0.08,0.468,0.145,0.932,0.207,1.385c0.136,0.987,0.276,2.009,0.575,2.992c3.006,9.93,11.767,15.857,23.438,15.857
		c1.426,0,2.898-0.092,4.374-0.275c12.495-1.545,20.628-10.197,20.718-22.044c0.118-15.096,0.082-30.44,0.049-45.28
		c-0.011-4.284-0.02-8.568-0.026-12.851c-0.001-0.815-0.169-1.603-0.318-2.298c-0.062-0.284-0.121-0.564-0.166-0.835l-0.128-0.766
		l-0.766-0.122c-2.776-0.444-4.783-0.764-6.254-0.764c-4.427,0-4.431,2.873-4.438,9.164v0.075c-0.001,1.691,0.008,3.383,0.018,5.076
		c0.028,5.38,0.059,10.945-0.28,16.373c-0.518,8.26-5.23,12.811-13.274,12.811c-0.228,0-0.459-0.005-0.69-0.012
		c-7.909-0.246-12.355-5.115-12.516-13.707c-0.085-4.525-0.067-9.135-0.052-13.594c0.01-2.459,0.02-4.918,0.012-7.377
		C208.279,54.388,208.269,51.07,203.991,51.07L203.991,51.07z"/>
	<path fill="#FFFFFF" d="M182.689,28.426c-0.321,0-0.657,0.012-1.006,0.034c-0.357,0.021-0.714,0.027-1.066,0.034
		c-2.132,0.039-5.356,0.099-5.318,4.901c0.07,8.578,0.068,17.304,0.066,25.741c-0.002,10.588-0.005,21.539,0.136,32.306
		c0.105,8.028,4.059,12.543,12.083,13.808c1.413,0.222,2.563,0.331,3.517,0.331c1.28,0,3.109-0.163,4.209-1.559
		c1.336-1.698,1.024-4.465,0.146-8.1l-0.167-0.695l-0.706-0.115c-3.703-0.605-5.743-0.94-6.503-1.883
		c-0.774-0.964-0.756-3.159-0.72-7.143l0.001-0.121c0.051-5.935,0.088-11.874,0.123-17.812c0.069-11.247,0.141-22.875,0.318-34.31
		c0.03-1.907-0.385-3.271-1.266-4.164C185.43,28.557,183.81,28.426,182.689,28.426L182.689,28.426z"/>
</g>
</svg>
