<?xml version="1.0" encoding="utf-8"?>
<!-- Generator: Adobe Illustrator 17.0.0, SVG Export Plug-In . SVG Version: 6.00 Build 0)  -->
<!DOCTYPE svg PUBLIC "-//W3C//DTD SVG 1.1//EN" "http://www.w3.org/Graphics/SVG/1.1/DTD/svg11.dtd">
<svg version="1.1" id="Layer_1" xmlns="http://www.w3.org/2000/svg" xmlns:xlink="http://www.w3.org/1999/xlink" x="0px" y="0px"
	 width="45.179px" height="18.711px" viewBox="0 0 45.179 18.711" enable-background="new 0 0 45.179 18.711" xml:space="preserve">
<path fill="#FDD7C4" d="M0,7.833l35.285,6.055c0,0-0.947,5.668,0.663,4.557c1.602-1.114,1.693-2.684,1.693-2.684
	s3.262,4.354,4.379,2.482c1.117-1.866-1.878-3.989-1.878-3.989s4.354,1.651,4.967-0.372c0.61-2.017-2.981-2.724-2.981-2.724
	s3.199-0.188,2.886-2.049c-0.321-1.861-3.088-0.549-3.088-0.549s0.144-1.942-0.887-3.083c-0.958-1.054-2.495,0.445-3.607,2.152
	c-0.093,0.137-0.181,0.286-0.265,0.426C36.049,9.922,0.518,0,0.518,0L0,7.833z"/>
</svg>
