<?xml version="1.0" encoding="utf-8"?>
<!-- Generator: Adobe Illustrator 17.0.0, SVG Export Plug-In . SVG Version: 6.00 Build 0)  -->
<!DOCTYPE svg PUBLIC "-//W3C//DTD SVG 1.1//EN" "http://www.w3.org/Graphics/SVG/1.1/DTD/svg11.dtd">
<svg version="1.1" id="Layer_1" xmlns="http://www.w3.org/2000/svg" xmlns:xlink="http://www.w3.org/1999/xlink" x="0px" y="0px"
	 width="38.615px" height="35.118px" viewBox="0 0 38.615 35.118" enable-background="new 0 0 38.615 35.118" xml:space="preserve">
<path fill="#E3A888" d="M34.819,35.118L6.292,8.547c0,0-2.822,3.674-3.048,2.114C3.022,9.1,3.899,8.183,3.899,8.183
	s-4.35,0.464-3.86-1.222c0.49-1.685,3.379-1.077,3.379-1.077s-3.354-1.67-2.498-3.143c0.853-1.471,3.237,0.27,3.237,0.27
	S2.515,1.015,3.782,0.178c1.274-0.833,2.017,1.524,2.017,1.524s1.063-1.152,2.3-1.171C9.242,0.52,9.201,2.253,8.804,3.848
	c-0.031,0.13-0.068,0.262-0.107,0.39C8.209,5.925,38.615,31.372,38.615,31.372L34.819,35.118z"/>
</svg>
