<svg id="Capa_1" data-name="Capa 1" xmlns="http://www.w3.org/2000/svg" viewBox="0 0 500 500"><defs><style>.cls-1{fill:#fff;}.cls-2{fill:#47a4e7;}</style></defs><rect class="cls-1" width="500" height="500" rx="30"/><path class="cls-2" d="M277.58,466.45h-71V254.31H136.1V183.54h70.44c0-2.28,0-4,0-5.67.51-18.58.09-37.23,1.78-55.7,2.15-23.44,10.3-44.67,29-60.48,13.33-11.29,29.21-16.62,46.22-18.52,22.63-2.53,45.21-.85,68.07,1.73v67.89c-1.5,0-3.17,0-4.83,0-14.37.21-28.79-.23-43.1.83-13.41,1-21.28,8.66-24.14,21.94a97.93,97.93,0,0,0-1.81,17.7c-.29,9.84-.08,19.7-.08,30H352c-1,7.37-1.86,14.2-2.84,21-2.2,15.38-4.6,30.72-6.61,46.12-.43,3.34-1.74,3.93-4.7,3.91-18.74-.11-37.49-.06-56.23,0-1.14,0-2.28.13-4,.24Z"/></svg>