<svg id="Capa_1" data-name="Capa 1" xmlns="http://www.w3.org/2000/svg" viewBox="0 0 500 500"><defs><style>.cls-1{fill:#fff;}.cls-2{fill:#47a4e7;}</style></defs><rect class="cls-1" width="500" height="500" rx="30"/><path class="cls-2" d="M60.35,249.84c0-28.35-1.08-56.74.26-85,2-42.07,23.24-72.89,59.68-93.32,16.36-9.18,34.2-13,53-13q78.19.1,156.41,0a112.68,112.68,0,0,1,111.73,96.28,84.32,84.32,0,0,1,.95,12.39c.05,55.32.59,110.64-.18,166-.71,51.72-41.39,97.63-92.43,106a98.33,98.33,0,0,1-15.66,1.55c-55.45.09-110.92.63-166.36-.14-52.08-.73-98.35-42.22-106.16-93.75a129.89,129.89,0,0,1-1.35-18.59c-.14-26.13-.06-52.27-.06-78.41Zm347.3.26q0-40.24,0-80.48c0-41.47-35-76.41-76.54-76.43q-79.65,0-159.3,0c-42,0-77,35-77.06,76.87q0,79.65,0,159.3c0,41.81,34.9,76.72,76.66,76.73H329.88c43.43,0,77.77-34.25,77.77-77.57Z"/><path class="cls-2" d="M355.57,249.75A104.48,104.48,0,0,1,251.32,354C193.94,354,147,307.18,146.93,249.86c0-57.54,46.95-104.54,104.49-104.49C308.73,145.41,355.57,192.35,355.57,249.75Zm-34.87.18c0-38.59-30.51-69.66-68.48-69.71-39.41-.05-70.4,30.34-70.43,69,0,39.06,30.44,69.85,69.14,69.88C290,319.17,320.69,288.72,320.7,249.93Z"/><path class="cls-2" d="M369.64,147.07a15.68,15.68,0,0,1-15.84,15.68,15.74,15.74,0,0,1,.17-31.48A15.58,15.58,0,0,1,369.64,147.07Z"/></svg>