<svg id="Capa_1" data-name="Capa 1" xmlns="http://www.w3.org/2000/svg" viewBox="0 0 500 500"><defs><style>.cls-1{fill:#fff;}.cls-2{fill:#47a4e7;}</style></defs><rect class="cls-1" y="-1" width="500" height="500" rx="30"/><path class="cls-2" d="M277.37,218.46c2.14.37,2.48-.91,3.05-1.7,19.37-26.88,46.14-35.24,77.72-30.65,36.32,5.28,53,21.28,60.68,57.32,3,14,3.29,28.1,3.16,42.36-.35,37.52-.1,75-.14,112.57,0,9.22.94,7.81-7.76,7.84-17.09.08-34.18.05-51.27,0-8.63,0-7.72,1-7.72-8q0-52.18,0-104.37a123.32,123.32,0,0,0-3-26c-2.85-13.26-12.68-22-26.2-23.32-7.85-.76-15.69-.27-23.07,2.76-9.92,4.08-16,11.68-19,21.89a104.56,104.56,0,0,0-3.81,29.16c-.08,33.88-.12,67.76.07,101.63,0,4.79-1,6.64-6.18,6.56-18.17-.3-36.36-.22-54.54-.05-4.21,0-6-.77-6-5.64q.24-102.72,0-205.45c0-3.82.62-5.49,5-5.43q27,.38,54,0c4.32-.06,5.17,1.56,5,5.42C277.19,203.1,277.37,210.84,277.37,218.46Z"/><path class="cls-2" d="M171.26,298c0,34.06-.08,68.12.1,102.17,0,4.65-1,6.29-6,6.2-18.54-.31-37.09-.22-55.63-.05-4,0-5.72-.72-5.71-5.31q.22-103,0-206c0-3.7.91-5.07,4.83-5q28.62.27,57.26,0c4.19,0,5.17,1.32,5.15,5.31C171.2,229.5,171.26,263.74,171.26,298Z"/><path class="cls-2" d="M137.58,161.16a38.88,38.88,0,0,1-38.72-39.54c.19-21.27,18.07-38.85,39.27-38.62a39.08,39.08,0,0,1-.55,78.16Z"/></svg>