<svg xmlns="http://www.w3.org/2000/svg" xmlns:xlink="http://www.w3.org/1999/xlink" viewBox="0 0 459.69 678.72"><defs><style>.cls-1{fill:url(#Degradado_sin_nombre_3);}</style><linearGradient id="Degradado_sin_nombre_3" x1="229.72" y1="398.05" x2="228.75" y2="857.74" gradientUnits="userSpaceOnUse"><stop offset="0" stop-color="#0a84e8 "/><stop offset="1" stop-color="#13a7de "/></linearGradient></defs><g id="Capa_2" data-name="Capa 2"><g id="Capa_2-2" data-name="Capa 2"><path class="cls-1" d="M459.69,449.76a240.11,240.11,0,0,1-2.67,35,180.63,180.63,0,0,1-4.17,19.77,237.61,237.61,0,0,1-7.38,23.86c-2,5.26-4.21,10.42-6.56,15.55-3.85,8.4-8.18,16.54-12.81,24.51-3,5.09-6.52,9.84-9.82,14.74a171.65,171.65,0,0,1-15.69,19.46,237.44,237.44,0,0,1-22.6,21.8,312,312,0,0,1-27,19.85c-5.31,3.52-11.1,6.32-16.76,9.27a108.09,108.09,0,0,1-13.72,6.52c-3.8,1.35-7.39,3.2-11.31,4.31-4.66,1.31-9.13,3.28-13.73,4.85a34.66,34.66,0,0,1-6.62,1.83c-7.19.93-14,3.41-21.19,4.35-8.34,1.08-16.65,2.55-25,3-8.64.46-17.31.32-26,0-6.69-.24-13.27-1.47-19.87-2.24-4-.49-8.2-.79-12.19-2.24-3.31-1.2-7-1.54-10.5-2.31a165.27,165.27,0,0,1-21.25-6.31c-6.57-2.4-13.24-4.62-19.45-7.91-5.19-2.74-10.45-5.35-15.61-8.16-5.43-3-10.71-6.11-15.85-9.52a222,222,0,0,1-31.67-25.65,263.11,263.11,0,0,1-25.1-28.21,158.33,158.33,0,0,1-11-16c-4.43-7.5-8.6-15.18-12.36-23-2.26-4.7-4.07-9.68-6.15-14.48-2.44-5.63-4.14-11.48-6-17.26-1-2.87-2.27-5.72-2.45-9-.18-3.47-1.86-6.7-2.55-10.14-.24-1.23-.62-2.51-.81-3.76C2.26,481,.05,469.73.24,458.26c.09-5,4.7-9.78,9.76-9.78q36.89,0,73.75,0,33,0,65.94,0c2.42,0,4.84,0,7.26,0,1,0,2.15,0,2.49-1.29s-.69-1.81-1.56-2.35c-2.12-1.32-4.64-1.7-6.95-2.56-5.48-2.05-10.74-4.56-16.13-6.77a211.13,211.13,0,0,1-22.42-11.34,239.18,239.18,0,0,1-21.19-13.7,225.09,225.09,0,0,1-28.27-23.8,199.11,199.11,0,0,1-25.27-30.32c-7.84-11.66-14.87-23.82-20.08-36.94-2.13-5.39-4.5-10.7-6.36-16.19-1.62-4.77-2.38-9.82-4.05-14.56-1.32-3.71-1.31-7.68-2.75-11.32a14.3,14.3,0,0,1-.67-3C.37,255.81-.44,237.11.2,218.33a187.94,187.94,0,0,1,3-26.51c.73-4.09,1.31-8.2,2.15-12.28a76.19,76.19,0,0,1,2.93-10.38c1-2.78,1.06-5.73,2.31-8.53,1.77-4,2.6-8.42,4.2-12.52,2.1-5.4,4.35-10.77,6.87-16,2.75-5.7,5.74-11.29,8.86-16.78A217.44,217.44,0,0,1,45.73,92.16a235.7,235.7,0,0,1,15.8-18.64,216.24,216.24,0,0,1,45.35-37.81A195,195,0,0,1,129.13,23.4c5-2.33,9.84-5.13,15.05-6.85,4.17-1.38,8.35-2.89,12.43-4.39,4.69-1.74,9.52-2.9,14.23-4.46A121.09,121.09,0,0,1,187.33,4c8.94-1.59,17.94-2.67,27-3.56,5.12-.52,10.23-.14,14.56-.34,7,0,13.32-.45,19.45.63,6.3,1.12,12.7,1.21,19,2.56,4.47.95,9.13,1.6,13.61,2.57A103,103,0,0,1,296.44,10c4,1.55,8.15,2.81,12.23,4.19a184.46,184.46,0,0,1,19.92,8.2A195.35,195.35,0,0,1,350,34,233.9,233.9,0,0,1,373.3,50.51c5.93,4.9,11.78,9.9,17.34,15.2a200,200,0,0,1,13.74,14.63A188.85,188.85,0,0,1,417.32,97c6.43,9.49,12.58,19.1,17.53,29.5,2.74,5.73,5.95,11.31,8,17.27s4.76,11.57,6.25,17.76c1.2,5,2.81,9.93,4.35,14.86a75.88,75.88,0,0,1,2.19,10.29c1.13,6.77,2.16,13.54,2.8,20.38.35,3.68,1,7.34,1,11.07.11,8-4,12.22-11.93,12.22q-40,0-80.11,0H305.25c-.46,0-.94,0-1.4,0-1.53.1-3.73-.34-3.83,1.73-.08,1.65,2.08,2.29,3.48,2.65,7.28,1.92,13.87,5.49,20.79,8.3,4.44,1.8,8.67,4,12.9,6.26,6.67,3.52,13.28,7.21,19.71,11.18a208.6,208.6,0,0,1,22.54,16.17c2.59,2.1,5.12,4.28,7.61,6.51a215.18,215.18,0,0,1,46.94,59,199.52,199.52,0,0,1,9.72,21,156.58,156.58,0,0,1,6.14,17.5c1.54,5.67,3.27,11.33,4.47,17.14,1,5.16,2.08,10.38,2.87,15.52A249.06,249.06,0,0,1,459.69,449.76Z"/></g></g></svg>