<svg id="Capa_1" data-name="Capa 1" xmlns="http://www.w3.org/2000/svg" viewBox="0 0 500 500"><defs><style>.cls-1{fill:#fff;}.cls-2{fill:#47a4e7;}</style></defs><rect class="cls-1" width="500" height="500" rx="30"/><path class="cls-2" d="M262.19,445H237.81c-1-.21-1.94-.48-2.93-.64-10.13-1.58-20.41-2.5-30.37-4.81-75-17.39-134-80.26-146.55-156-1.18-7.1-2-14.26-3-21.39V237.81c.21-1,.48-1.93.64-2.91,1.58-10.14,2.5-20.42,4.81-30.38C77.77,129.61,140.84,70.46,216.4,58c7.1-1.18,14.27-2,21.41-3h24.38c1.1.22,2.2.49,3.32.66,10,1.57,20.15,2.5,30,4.79,75,17.41,133.9,80.23,146.54,156,1.18,7.1,2,14.26,3,21.39v24.38c-.21,1-.48,1.93-.63,2.91-1.58,10.14-2.51,20.42-4.81,30.38-17.33,74.94-80.3,134-156,146.56C276.49,443.22,269.32,444,262.19,445Zm-63.32-30.78c53.59,18,132.46,8.48,184.57-55.42A172.32,172.32,0,0,0,182.53,91.33c-70,29.88-116.47,104.81-102.19,188.46,6.44,37.73,24.09,69.73,51.95,96a168.38,168.38,0,0,0,54.56,34.53c-.21-2.68-.36-4.56-.51-6.44-1.1-13.69-2.07-27.43,1-40.95,6.33-27.93,13.06-55.77,19.48-83.68a13.45,13.45,0,0,0-.38-6.92c-3.92-12-5.21-24.07-2.1-36.34,2.81-11.09,8.17-20.58,19-25.76,15.24-7.28,30.15,1,32.24,17.74,1,8-.81,15.66-2.89,23.24-3.63,13.2-7.83,26.24-11.13,39.51-3,12.23,3.77,23.94,15.61,28.25,8.16,3,16.31,2.09,24.21-.85,15.15-5.63,24.46-17.24,30.87-31.45,7.52-16.68,10-34.38,8.37-52.43-2.08-23.53-13.11-41.88-34.12-53.45-14.46-8-30.12-10.17-46.42-8.51-23,2.34-41.66,12.3-55.08,31.27-17,24-18.62,58.18-.72,82.44,1.08,1.46,1.25,4.13.88,6-1.11,5.71-2.66,11.35-4.11,17-1.25,4.85-2.79,5.53-7.33,3.21-8.49-4.36-14.83-11-19.83-19C143.09,276,138.33,257.3,140.18,237c3-33.14,17.6-59.78,46-77.51,30.3-18.9,63.54-22.71,97.81-14.09,32,8,55.45,27.27,68.66,57.92,9,20.93,9.2,42.74,4.74,64.65-5.29,25.93-17.05,48.24-38.6,64.46-16.05,12.08-34.29,17.62-54.29,15.62-13.41-1.34-25-7-33.6-18.9C223.42,359,217.4,388.78,198.87,414.22Z"/></svg>