<svg id="Capa_1" data-name="Capa 1" xmlns="http://www.w3.org/2000/svg" viewBox="0 0 500 500"><defs><style>.cls-1{fill:#fff;}.cls-2{fill:#47a4e7;}</style></defs><rect class="cls-1" y="-1" width="500" height="500" rx="30"/><path class="cls-2" d="M250.45,58.25c44.81,0,89.62-.25,134.42.09,29.69.23,56.19,27.06,57,56.81,0,.84.08,1.67.08,2.5,0,89,.14,177.92-.18,266.88-.1,30.26-27,57.18-57.26,57.36-67.69.39-135.39.19-203.09.21-21.78,0-43.56.23-65.33-.18-30.3-.56-56.72-27.08-57.12-57.51-.42-31.13-.19-62.27-.18-93.41,0-58.52-.18-117,.2-175.55.19-30.06,27.06-56.87,57-57.11C160.84,58,205.65,58.25,250.45,58.25Zm-177,191.46c0,42.53-.11,85,.12,127.58a63.65,63.65,0,0,0,2.7,18.84c6.29,19.55,23.93,31.14,46.3,31.15q127.74,0,255.48,0a65.05,65.05,0,0,0,8.72-.43c24.44-3.35,40.43-22.52,40.44-48.59q0-128.21,0-256.4a61.91,61.91,0,0,0-.48-8.73c-3.53-24.32-22.6-40.28-48.33-40.3q-127.95-.06-255.9.1a59,59,0,0,0-18,2.75c-19.46,6.4-31.05,24.09-31.07,46.46Q73.43,185.93,73.46,249.71Z"/><path class="cls-2" d="M317.69,117.26c1.85,28,22,44.48,45.14,45.63v44.77c-15.81.12-30.35-4.07-44.8-11.94v99.75c0,47-38.1,87-85,89.28-49.3,2.34-90.59-33.29-95.16-82.13-4.49-48.07,29.88-91.11,78.16-97.78,3.68-.51,7.42-.6,11.62-.92.11,1.72.26,3.05.26,4.38,0,12.22-.07,24.46.06,36.68,0,3-.55,4.34-4,4.6-24.36,1.81-42.56,23.06-41.2,47.81,1.31,23.78,21.87,42.82,45.69,42.3a45,45,0,0,0,44.39-44.86q.06-86.1,0-172.19c0-5.37,0-5.38,5.43-5.38h39.38Z"/></svg>