<svg id="Capa_1" data-name="Capa 1" xmlns="http://www.w3.org/2000/svg" viewBox="0 0 500 500"><defs><style>.cls-1{fill:#fff;}.cls-2{fill:#47a4e7;}</style></defs><rect class="cls-1" x="1" width="500" height="500" rx="30"/><path class="cls-2" d="M229.42,309.66c-.47.5-.88.9-1.26,1.33l-73.28,83.74q-19.14,21.88-38.26,43.77a4,4,0,0,1-3.31,1.53q-29.43-.07-58.84,0H52.61a2.12,2.12,0,0,1-.14-.28.32.32,0,0,1,0-.17,1.49,1.49,0,0,1,.18-.3,3.11,3.11,0,0,1,.23-.28L199.55,271.32a.8.8,0,0,0,.08-.16,3.18,3.18,0,0,0,.12-.33L44,67.15c.75-.06,1.2-.13,1.64-.13q63.65,0,127.29,0a2.63,2.63,0,0,1,2.37,1.15q22.11,29.3,44.27,58.56L263.64,185c.25.33.52.64.9,1.11.44-.45.85-.83,1.22-1.25l50.79-58.07q25.63-29.31,51.25-58.62A2.91,2.91,0,0,1,370.21,67q30.14,0,60.27,0c.35,0,.69,0,1.39.08-4.2,5-8.43,9.7-12.55,14.45S411,91.1,406.79,95.87l-12.52,14.31L381.74,124.5q-6.25,7.16-12.52,14.32l-12.64,14.44-12.52,14.32-12.53,14.31L319,196.21l-12.53,14.31L293.84,225,456.36,439.85c-.76.07-1.24.14-1.73.14H438.81q-53.78,0-107.55,0a3.73,3.73,0,0,1-3.37-1.67q-40.87-53.55-81.82-107L230.51,311C230.19,310.57,229.84,310.18,229.42,309.66ZM117.75,102.86c.76,1,1.24,1.69,1.73,2.33l93.3,122L316.65,363l28.83,37.69a2.76,2.76,0,0,0,2.39,1.48c10.78-.05,21.57,0,32.35,0a7.52,7.52,0,0,0,1.25-.22c-.46-.64-.79-1.12-1.15-1.59q-15.27-20.21-30.55-40.4L246.32,223.1Q201.4,163.7,156.5,104.29a3.21,3.21,0,0,0-2.94-1.46c-11.2,0-22.39,0-33.59,0Z"/></svg>